<?xml version="1.0" standalone="no"?>
<!DOCTYPE svg PUBLIC "-//W3C//DTD SVG 20010904//EN"
 "http://www.w3.org/TR/2001/REC-SVG-20010904/DTD/svg10.dtd">
<svg version="1.0" xmlns="http://www.w3.org/2000/svg"
 width="397.000000pt" height="397.000000pt" viewBox="0 0 397.000000 397.000000"
 preserveAspectRatio="xMidYMid meet">
<metadata>
Created by potrace 1.14, written by Peter Selinger 2001-2017
</metadata>
<g transform="translate(0.000000,397.000000) scale(0.100000,-0.100000)"
fill="#000000" stroke="none">
<path d="M1980 3959 c0 -4 6 -25 14 -47 22 -61 15 -166 -13 -225 -27 -55 -107
-167 -120 -167 -4 0 -14 21 -21 48 -7 26 -15 51 -18 56 -9 15 -81 -75 -115
-144 -29 -58 -32 -73 -32 -155 0 -67 5 -99 18 -126 24 -49 78 -110 115 -131
l30 -18 -15 43 c-24 67 -22 164 6 217 19 39 90 108 121 118 5 2 -3 -23 -18
-55 -25 -53 -28 -72 -23 -135 0 -9 13 -30 27 -47 20 -25 34 -31 64 -31 31 0
44 7 69 35 17 20 31 41 32 48 1 7 4 1 8 -13 4 -14 7 -58 5 -97 -1 -40 1 -73 5
-73 19 0 90 74 116 121 27 49 30 63 32 154 2 158 -45 309 -141 454 -43 64
-145 183 -146 170z"/>
<path d="M2560 3475 c110 -74 219 -184 277 -280 29 -47 73 -139 73 -151 0 -7
15 -28 33 -46 233 -236 287 -562 137 -838 l-30 -55 41 45 c113 125 190 289
205 435 10 96 11 122 3 195 -41 381 -350 688 -729 725 l-65 7 55 -37z"/>
<path d="M1350 3483 c-402 -67 -690 -407 -691 -814 0 -189 79 -393 206 -534
41 -45 41 -45 -2 45 -124 262 -66 578 144 786 18 17 41 54 52 81 19 49 62 127
103 186 40 57 164 175 228 216 l63 41 -39 -1 c-21 -1 -50 -4 -64 -6z"/>
<path d="M3285 3103 c45 -90 81 -203 90 -283 7 -65 7 -219 0 -231 -4 -5 1 -31
10 -58 9 -27 18 -62 21 -78 2 -15 7 -39 10 -52 6 -30 6 -157 -1 -191 -35 -178
-96 -293 -217 -410 -24 -23 -62 -53 -85 -67 -118 -69 36 -7 182 74 43 24 166
146 211 208 258 363 169 869 -202 1138 -29 20 -54 37 -57 37 -3 0 14 -39 38
-87z"/>
<path d="M660 3138 c-262 -184 -396 -506 -340 -820 45 -254 217 -477 450 -586
106 -49 121 -49 55 0 -196 148 -297 362 -282 597 6 92 10 113 28 170 7 21 12
88 11 161 -2 175 23 282 99 433 21 42 35 77 31 77 -4 -1 -27 -15 -52 -32z"/>
<path d="M2965 2707 c-1 -162 -18 -242 -81 -373 -87 -181 -218 -314 -409 -416
l-70 -38 105 4 c159 7 275 55 382 159 132 127 190 261 191 437 1 108 -17 189
-64 285 -50 105 -54 101 -54 -58z"/>
<path d="M964 2785 c-106 -182 -115 -391 -24 -580 75 -157 196 -262 365 -320
44 -14 245 -30 245 -19 0 2 -30 19 -67 38 -232 117 -399 324 -465 578 -17 64
-22 113 -22 215 -1 73 -2 133 -3 133 -1 0 -14 -20 -29 -45z"/>
<path d="M1790 2670 c-39 -17 -59 -40 -66 -76 -3 -19 -12 -34 -20 -34 -22 0
-102 -82 -109 -113 -10 -40 9 -98 44 -131 l30 -28 6 36 c10 50 54 86 107 86
69 0 108 -57 121 -178 4 -36 -3 -58 -40 -135 -58 -119 -78 -172 -104 -282 -29
-123 -30 -282 -1 -430 25 -128 89 -469 96 -505 10 -58 58 -320 71 -385 8 -38
16 -85 19 -102 8 -47 17 -95 21 -113 2 -8 4 -26 5 -40 0 -19 3 -22 9 -10 5 8
11 29 14 45 4 26 71 374 83 430 2 11 6 32 9 48 3 15 12 59 20 98 13 63 13 73
-1 101 -91 177 -119 418 -69 613 30 117 61 186 138 304 85 129 110 202 108
316 -1 85 -10 128 -45 198 l-34 67 29 1 c16 1 34 3 39 4 6 1 19 3 29 4 30 2
69 42 76 78 l6 32 -33 -10 c-18 -5 -67 -9 -108 -8 l-75 0 68 20 c85 24 143 53
157 78 15 29 14 29 -40 15 -50 -13 -253 -12 -310 1 -52 12 -225 15 -250 5z
m180 -65 c0 -22 -93 -50 -157 -46 -27 1 -21 24 10 39 22 10 147 17 147 7z"/>
<path d="M3733 2476 c-2 -165 -47 -320 -133 -461 -22 -36 -42 -80 -45 -97 -50
-296 -282 -525 -580 -572 -70 -11 -76 -13 -45 -19 56 -9 260 1 320 16 227 58
408 201 518 407 135 252 128 557 -18 801 -15 25 -15 22 -17 -75z"/>
<path d="M181 2478 c-111 -228 -114 -488 -6 -713 148 -309 471 -492 810 -460
42 4 75 8 73 10 -2 2 -28 6 -58 10 -30 4 -88 18 -129 31 -137 46 -222 107
-336 239 -52 61 -110 201 -130 312 -3 18 -17 49 -31 70 -92 135 -145 309 -147
481 0 56 -1 102 -3 102 -1 0 -20 -37 -43 -82z"/>
<path d="M3291 2306 c-150 -312 -450 -503 -801 -508 l-82 -1 38 -24 c155 -94
367 -102 541 -21 53 24 147 90 177 122 87 98 144 203 166 309 10 50 16 205 8
212 -2 2 -23 -38 -47 -89z"/>
<path d="M623 2270 c7 -165 49 -274 153 -389 119 -133 279 -203 459 -202 113
0 158 12 260 65 l60 31 -115 6 c-129 8 -148 11 -240 41 -133 43 -262 122 -357
220 -84 85 -119 135 -176 248 l-48 95 4 -115z"/>
<path d="M3413 1796 c-55 -46 -169 -113 -243 -143 -246 -100 -519 -85 -755 40
-36 19 -65 32 -65 30 0 -18 100 -141 143 -175 278 -221 702 -151 892 147 32
49 68 125 60 125 -2 0 -16 -11 -32 -24z"/>
<path d="M539 1742 c76 -150 202 -261 355 -312 85 -28 100 -30 186 -31 205 0
376 83 485 235 25 35 45 66 45 69 0 2 -29 -11 -65 -30 -73 -39 -180 -77 -246
-88 -24 -4 -53 -9 -64 -12 -11 -2 -56 -4 -100 -4 -200 -1 -394 63 -550 181
-36 27 -68 50 -71 50 -2 0 9 -26 25 -58z"/>
<path d="M3861 1746 c-38 -82 -114 -186 -182 -252 -62 -59 -179 -144 -197
-144 -12 0 -48 -35 -92 -88 -122 -148 -346 -246 -541 -237 -97 5 -145 16 -264
60 -28 11 50 -46 109 -79 48 -27 165 -69 221 -81 118 -23 297 -14 405 21 136
45 290 148 375 249 127 152 200 350 193 527 l-3 76 -24 -52z"/>
<path d="M74 1680 c5 -112 7 -123 31 -207 83 -286 332 -510 630 -568 152 -30
362 -2 499 66 76 38 146 82 146 91 0 4 -22 -1 -49 -11 -191 -76 -440 -47 -616
70 -67 45 -195 170 -195 190 0 5 -6 9 -13 9 -26 0 -167 102 -232 167 -75 75
-112 126 -168 228 l-38 70 5 -105z"/>
<path d="M2154 1675 c-98 -226 -45 -484 136 -666 119 -121 271 -183 435 -180
39 0 79 3 90 5 11 3 26 5 33 5 29 2 8 20 -35 31 -171 42 -386 204 -491 369
-76 119 -130 275 -141 411 l-6 75 -21 -50z"/>
<path d="M2264 1680 c3 -8 7 -40 10 -71 23 -235 227 -446 480 -494 43 -8 96
-15 117 -15 55 0 180 27 237 51 54 23 172 100 172 112 0 5 -3 6 -8 3 -21 -13
-111 -21 -237 -21 -150 1 -229 17 -351 71 -160 71 -252 152 -406 356 -10 13
-16 16 -14 8z"/>
<path d="M1625 1573 c-59 -91 -225 -221 -355 -278 -173 -76 -401 -95 -575 -49
-42 11 50 -57 130 -97 271 -134 601 -47 775 206 47 68 67 124 60 167 -4 20 -5
45 -3 57 4 29 -11 26 -32 -6z"/>
<path d="M1642 1227 c-24 -40 -77 -106 -120 -148 -114 -112 -208 -171 -349
-219 -47 -15 -79 -31 -73 -35 6 -4 55 -9 108 -12 181 -10 336 49 465 178 59
59 68 72 63 96 -2 15 -12 66 -20 113 -9 47 -16 88 -16 93 0 21 -19 -1 -58 -66z"/>
<path d="M2163 1011 c47 -112 187 -272 305 -348 174 -112 417 -152 627 -104
213 50 426 213 526 401 43 81 42 83 -24 37 -137 -98 -296 -154 -457 -163 -65
-4 -109 -12 -139 -26 -93 -42 -179 -57 -301 -54 -201 6 -330 63 -477 211 -47
48 -68 63 -60 46z"/>
<path d="M326 969 c109 -218 312 -376 560 -435 58 -14 268 -13 335 1 201 43
382 162 500 328 59 85 57 118 -5 59 -126 -120 -273 -182 -446 -188 -115 -3
-181 8 -280 48 -58 23 -95 31 -160 34 -152 7 -336 70 -460 158 -72 51 -73 51
-44 -5z"/>
<path d="M1734 727 c-114 -95 -179 -178 -219 -275 -37 -92 -37 -95 24 -136 29
-20 56 -36 61 -36 4 0 52 96 107 214 74 156 99 221 96 240 -3 14 -8 28 -12 31
-4 2 -29 -15 -57 -38z"/>
<path d="M2163 738 c-9 -40 -15 -21 52 -163 31 -66 75 -159 97 -207 23 -49 45
-88 48 -88 4 0 32 16 63 36 l55 37 -15 49 c-37 126 -118 232 -270 351 -23 19
-23 19 -30 -15z"/>
<path d="M1802 512 c-12 -26 -48 -102 -80 -170 -32 -67 -61 -121 -63 -120 -3
2 20 -21 51 -51 73 -72 145 -128 193 -152 36 -19 38 -19 33 -2 -3 10 -13 58
-22 108 -19 107 -22 122 -29 155 -2 14 -7 41 -10 60 -3 19 -12 67 -20 107 -8
40 -15 81 -15 93 0 33 -13 23 -38 -28z"/>
<path d="M2127 550 c-3 -8 -15 -64 -26 -125 -12 -60 -35 -179 -51 -263 -17
-84 -30 -155 -30 -157 0 -3 12 1 28 7 39 17 117 76 195 148 54 50 65 65 54 74
-8 6 -32 49 -53 96 -81 176 -112 235 -117 220z"/>
</g>
</svg>
